PathFileType	4	(X/Y/Z)	C:\Users\Basilio\Documents\Thesis Gigler\squatting_fais\c3dfiles\077\SLS_back_pre5\markers_experimental.trc
DataRate	CameraRate	NumFrames	NumMarkers	Units	OrigDataRate	OrigDataStartFrame	OrigNumFrames
200.000000	200.000000	4	60	mm	200.000000	0	1578
Frame#	Time	FHD			RBHD			C7			T10			CLAV			LSHO			LUUPA			LMUPA			LDUPA			LLEP			LMEP			LRAD			LUL			LRFIN			RSHO			RUPA1			RMUPA			RDUPA			RLEP			RMEP			RRAD			RUL			RUFIN			LASI			RASI			USACR			LSACR			RSACR			LTHI1			LTHI2			LTHI3			LTHI4			LLFC			LMFC			LTIB1			LTIB2			LTIB3			LTIB4			LLMAL			LHEE			LMT1			LMT2			LMT5			RTHI			RTHI2			RTHI3			RTHI4			RLFC			RMFC			RTIB1			RTIB2			RTIB3			RTIB4			RLMAL			RMMAL			RHEE			RMT1			RMT2			RMT5			LBHD			
		X1	Y1	Z1	X2	Y2	Z2	X3	Y3	Z3	X4	Y4	Z4	X5	Y5	Z5	X6	Y6	Z6	X7	Y7	Z7	X8	Y8	Z8	X9	Y9	Z9	X10	Y10	Z10	X11	Y11	Z11	X12	Y12	Z12	X13	Y13	Z13	X14	Y14	Z14	X15	Y15	Z15	X16	Y16	Z16	X17	Y17	Z17	X18	Y18	Z18	X19	Y19	Z19	X20	Y20	Z20	X21	Y21	Z21	X22	Y22	Z22	X23	Y23	Z23	X24	Y24	Z24	X25	Y25	Z25	X26	Y26	Z26	X27	Y27	Z27	X28	Y28	Z28	X29	Y29	Z29	X30	Y30	Z30	X31	Y31	Z31	X32	Y32	Z32	X33	Y33	Z33	X34	Y34	Z34	X35	Y35	Z35	X36	Y36	Z36	X37	Y37	Z37	X38	Y38	Z38	X39	Y39	Z39	X40	Y40	Z40	X41	Y41	Z41	X42	Y42	Z42	X43	Y43	Z43	X44	Y44	Z44	X45	Y45	Z45	X46	Y46	Z46	X47	Y47	Z47	X48	Y48	Z48	X49	Y49	Z49	X50	Y50	Z50	X51	Y51	Z51	X52	Y52	Z52	X53	Y53	Z53	X54	Y54	Z54	X55	Y55	Z55	X56	Y56	Z56	X57	Y57	Z57	X58	Y58	Z58	X59	Y59	Z59	X60	Y60	Z60	

1	0	-240.5517730712891	1856.472290039063	-905.121276855469	-360.8605651855469	1753.880859375	-784.5982055664065	-441.7675170898439	1607.5693359375	-865.2401123046877	-435.2921752929689	1268.320922851563	-861.3147583007815	-276.8734130859376	1558.587524414063	-881.0323486328127	-345.7565307617188	1571.761840820313	-1075.300537109375	-366.9459228515626	1347.803588867188	-1172.605834960938	-321.0301818847657	1330.326538085938	-1170.75830078125	-356.4873046875001	1280.967407226563	-1182.371215820313	-330.6170959472657	1217.937622070313	-1187.470581054688	-371.3766174316407	1188.29052734375	-1114.900390625	-111.8508377075196	1300.11474609375	-993.838806152344	-84.68813323974611	1227.5703125	-1017.037109375	-22.7076530456543	1307.568359375	-950.0289306640627	-291.1569519042969	1569.19287109375	-680.7136840820314	-314.4747924804688	1363.354736328125	-555.8690185546876	-273.4009399414063	1338.912963867188	-567.7321777343751	-306.2676391601563	1294.8515625	-543.1810913085939	-281.8530883789063	1230.000854492188	-542.2952880859376	-342.2985229492188	1193.689575195313	-598.6116333007814	-111.5684509277344	1252.782348632813	-787.9923095703127	-70.6605682373047	1204.0068359375	-739.8792724609376	-22.30991172790528	1268.417724609375	-816.3184814453127	-245.1339721679688	1068.074951171875	-1010.509887695313	-220.5826263427735	1098.923706054688	-722.7897338867189	-437.0330810546876	1160.986694335938	-856.7944946289065	-443.3144531250001	1128.832641601563	-883.3006591796877	-441.4623413085939	1129.748413085938	-827.8576660156252	-329.2616577148438	861.916198730469	-1071.403686523438	-309.3407897949219	780.7590332031252	-1074.837158203125	-260.4143371582032	777.189636230469	-1069.339599609375	-343.8988647460938	731.2883300781251	-1061.959838867188	-329.7570495605469	583.4125366210939	-1047.27392578125	-316.9753112792969	546.6156616210939	-919.952087402344	-289.4816589355469	361.6951599121094	-1014.335083007813	-325.4353027343751	325.6502075195313	-1088.851928710938	-291.2861328125001	319.9851074218751	-1057.529296875	-289.7658386230469	238.4507293701172	-1038.08056640625	-346.8159484863282	120.3464889526367	-1090.632202148438	-396.8544006347657	84.37305450439455	-1043.166137695313	-188.1640319824219	56.02743530273439	-1024.290893554688	-180.9576721191407	57.91969680786134	-1066.739135742188	-312.2302856445313	125.473373413086	-1008.3017578125	-361.1819763183594	770.9536743164065	-688.8546752929689	-336.7015380859376	710.9484863281251	-690.7006225585939	-303.0765686035157	706.4519653320314	-693.1955566406251	-376.7124023437501	641.7264404296876	-708.7683105468751	-386.9400024414064	570.3072509765626	-714.9636230468751	-350.4789428710938	557.7770385742189	-842.4464111328127	-336.2411193847657	434.487518310547	-734.3412475585939	-398.3399658203126	351.7315063476563	-707.8258666992189	-353.6958618164063	349.6577758789063	-725.0238647460939	-344.6322631835938	306.4435119628907	-765.5142211914064	-411.1621093750001	125.6714553833008	-737.6472778320314	-373.2409973144532	135.5277252197266	-822.9976196289065	-463.8881225585939	102.9459991455078	-800.363952636719	-243.9008331298829	63.33650588989259	-768.6842041015627	-253.6490478515626	62.18490982055665	-732.3128051757814	-277.4559936523438	45.8669662475586	-686.0700683593751	nan	nan	nan	
2	0.005	-240.5985107421876	1856.428344726563	-905.101501464844	-360.9755554199219	1753.904663085938	-784.675964355469	-441.8352050781251	1607.557373046875	-865.2490234375002	-435.3564453125001	1268.347534179688	-861.2576904296877	-276.9352722167969	1558.63134765625	-881.0109863281252	-345.8093261718751	1571.722290039063	-1075.321411132813	-366.8769531250001	1347.736450195313	-1172.521484375	-321.0362854003907	1330.254638671875	-1170.715942382813	-356.4131164550782	1280.931762695313	-1182.304809570313	-330.4295349121094	1217.88232421875	-1187.4052734375	-371.1980895996094	1188.187377929688	-1114.826171875	-111.9944763183594	1300.6982421875	-993.7224731445315	-84.73010253906251	1228.1181640625	-1016.62060546875	-22.55835914611817	1308.887939453125	-949.3189697265627	-291.2557678222657	1569.27001953125	-680.7452392578126	-314.6899414062501	1363.35595703125	-555.9091186523439	-273.6035461425782	1338.970336914063	-567.6412353515626	-306.4972229003907	1294.839477539063	-543.2395019531251	-282.1413879394532	1229.657836914063	-542.6144409179689	-342.3241271972657	1193.6865234375	-598.8405151367189	-111.4277114868164	1253.20458984375	-787.7947387695315	-70.4424285888672	1204.645874023438	-739.4714965820314	-22.11295127868653	1268.7646484375	-816.2806396484377	-245.2385559082032	1068.058471679688	-1010.465270996094	-220.6005401611329	1098.924072265625	-722.7598266601564	-437.0246887207032	1161.004516601563	-856.825866699219	-443.3386535644532	1128.811401367188	-883.2651367187502	-441.5020446777345	1129.756103515625	-827.8253173828127	-329.2582702636719	861.9055175781252	-1071.40673828125	-309.3170166015626	780.7233886718752	-1074.849853515625	-260.4677429199219	777.1315917968752	-1069.309448242188	-343.9128723144532	731.2737426757814	-1061.942260742188	-329.8228454589844	583.3911743164064	-1047.24365234375	-316.9762573242188	546.5895996093751	-919.948425292969	-289.4693908691407	361.7000427246094	-1014.339172363281	-325.4296875000001	325.6413269042969	-1088.87548828125	-291.2960815429688	319.9721679687501	-1057.520629882813	-289.7658386230469	238.4507293701172	-1038.08056640625	-346.8701477050782	120.334213256836	-1090.63232421875	-396.8190917968751	84.38549041748048	-1043.147827148438	-188.1873931884766	56.02035522460939	-1024.369995117188	-180.9564819335938	57.92182922363283	-1066.781494140625	-312.2383117675782	125.4499816894532	-1008.307739257813	-361.2008666992188	770.9608154296877	-688.8729858398439	-336.7525634765626	710.9382324218751	-690.6363525390626	-303.1224975585938	706.4439697265626	-693.1211547851564	-376.7914123535157	641.7117309570314	-708.7265625000001	-386.9744567871095	570.2971191406251	-714.9225463867189	-350.5130310058594	557.7937622070314	-842.431823730469	-336.2337646484376	434.4686889648439	-734.3251953125001	-398.4029846191407	351.6942749023438	-707.7979736328126	-353.7215881347657	349.6723632812501	-724.9577026367189	-344.6844482421876	306.3884277343751	-765.4796752929689	-411.1701965332032	125.6919479370117	-737.6367797851564	-373.2623596191407	135.5242004394532	-822.9916992187502	-463.8648071289064	102.9743041992188	-800.340515136719	-243.9207153320313	63.3624610900879	-768.6787719726565	-253.6753082275391	62.119686126709	-732.2960205078126	-277.4694519042969	45.83601379394532	-686.0728149414064	nan	nan	nan	
3	0.01	-240.6914520263672	1856.429321289063	-905.1297607421877	-361.6760253906251	1753.02001953125	-785.6114501953127	-441.9188232421876	1607.541870117188	-865.2426757812502	-435.3681640625001	1268.29833984375	-861.1967773437502	-276.9558410644532	1558.65478515625	-880.9725341796877	-345.8556823730469	1571.673461914063	-1075.348022460938	-366.8580017089844	1347.663208007813	-1172.448364257813	-320.9957580566407	1330.204467773438	-1170.73974609375	-356.3300170898438	1280.822998046875	-1182.240844726563	-330.3158264160157	1217.804321289063	-1187.373046875	-370.9685363769532	1188.147827148438	-1114.713500976563	-112.1886291503907	1301.281127929688	-993.6350708007815	-84.86207580566408	1228.561889648438	-1016.233032226563	-23.1268424987793	1309.201293945313	-949.5471801757815	-291.3431701660157	1569.336059570313	-680.6886596679689	-314.9566040039063	1363.304321289063	-555.9540405273439	-273.8417053222657	1338.97900390625	-567.5678100585939	-306.7637939453126	1294.819213867188	-543.2725830078126	-282.3320312500001	1229.66796875	-542.6874389648439	-342.4622192382813	1193.657104492188	-599.1716308593751	-111.3141021728516	1253.675048828125	-787.5855102539065	-70.2303924560547	1205.31494140625	-739.1143188476564	-21.89186477661133	1269.11376953125	-816.1595458984377	-245.278305053711	1067.9853515625	-1010.424987792969	-220.6296997070313	1098.913208007813	-722.7435302734376	-437.0846252441407	1161.008666992188	-856.7366333007815	-443.3883666992189	1128.82080078125	-883.1985473632815	-441.5427551269532	1129.7919921875	-827.7602539062502	-329.2767639160157	861.8914794921877	-1071.382568359375	-309.4345092773438	780.7448730468752	-1074.786499023438	-260.5059814453126	777.1497192382815	-1069.298828125	-343.9006042480469	731.2712402343751	-1061.875610351563	-329.8359375000001	583.3883666992189	-1047.2099609375	-317.0402221679688	546.5974731445314	-919.9419555664065	-289.4530029296876	361.7296752929688	-1014.284851074219	-325.3797912597657	325.6663513183594	-1088.82470703125	-291.3438720703126	319.9850463867188	-1057.492431640625	-289.7658386230469	238.4507293701172	-1038.08056640625	-346.8731689453126	120.335678100586	-1090.643188476563	-396.843231201172	84.40001678466798	-1043.135009765625	-188.1867218017578	56.01882171630861	-1024.357788085938	-180.9480590820313	58.0225296020508	-1066.710693359375	-312.2326049804688	125.4809112548828	-1008.300415039063	-361.2419128417969	770.9632568359377	-688.8002929687501	-336.7839355468751	710.9324340820314	-690.6403198242189	-303.1879577636719	706.4303588867189	-693.1081542968751	-376.8217163085938	641.7262573242189	-708.7406616210939	-387.0159606933595	570.3000488281251	-714.9262084960939	-350.4678955078126	557.8003540039064	-842.3682861328127	-336.3105163574219	434.5057983398439	-734.2611694335939	-398.4260864257814	351.6921997070313	-707.7821044921876	-353.7472839355469	349.6590576171876	-725.0011596679689	-344.6547241210938	306.4260559082032	-765.5277099609376	-411.1666870117189	125.6985092163086	-737.6333618164064	-373.2537536621094	135.5018920898438	-823.006530761719	-463.849578857422	102.9468688964844	-800.3618774414065	-243.9288787841797	63.37145996093751	-768.6759033203127	-253.6295623779297	62.16069412231447	-732.3047485351564	-277.4679260253907	45.85210418701173	-686.0701904296876	nan	nan	nan	
4	0.015	-240.7053527832032	1856.461669921875	-905.1121215820315	-361.7593994140626	1753.031494140625	-785.6460571289065	-441.9351501464845	1607.466430664063	-865.2978515625002	-435.397430419922	1268.342041015625	-861.176452636719	-276.9947509765626	1558.697998046875	-880.9655761718752	-345.9158630371094	1571.644897460938	-1075.350708007813	-366.8734436035157	1347.584106445313	-1172.40087890625	-320.9495849609376	1330.1376953125	-1170.698364257813	-356.3146057128907	1280.749633789063	-1182.184692382813	-330.2109069824219	1217.765380859375	-1187.296997070313	-371.0138549804688	1188.059814453125	-1114.650512695313	-112.4153137207032	1301.825317382813	-993.5081787109377	-84.95397186279298	1229.033813476563	-1015.841552734375	-23.38654136657715	1309.820922851563	-949.2615356445315	-291.4328918457032	1569.368530273438	-680.6650390625001	-315.1875610351563	1363.281616210938	-556.0277099609376	-274.0657348632813	1338.95654296875	-567.4545898437501	-307.0152893066407	1294.786499023438	-543.3442993164064	-282.5863647460938	1229.65673828125	-542.7283325195314	-342.5660095214844	1193.6240234375	-599.4187011718751	-111.2550277709961	1254.084594726563	-787.4395141601565	-70.10980224609376	1205.911254882813	-738.8824462890626	-21.70112419128418	1269.357055664063	-816.2105102539065	-245.2848205566407	1067.968139648438	-1010.335754394531	-220.6496124267579	1098.9228515625	-722.7125854492189	-437.1274414062501	1160.994873046875	-856.7203369140627	-443.4096984863282	1128.823120117188	-883.1967773437502	-441.5612182617189	1129.780639648438	-827.7581787109377	-329.2994995117188	861.8911743164065	-1071.365356445313	-309.4090270996094	780.7266845703127	-1074.782470703125	-260.5262756347657	777.1455078125002	-1069.2841796875	-343.9602050781251	731.2478027343751	-1061.889038085938	-329.8631591796876	583.3739013671876	-1047.211303710938	-317.0332031250001	546.5803833007814	-919.9094848632815	-289.5587463378907	361.6849975585938	-1014.328491210938	-325.4390563964844	325.6602783203126	-1088.833984375	-291.4011535644532	319.9351501464844	-1057.455200195313	-289.8261718750001	238.4367828369141	-1038.037109375	-346.8139648437501	120.3063278198242	-1090.668090820313	-396.8502502441407	84.38481903076173	-1043.138549804688	-188.1920318603516	56.02003860473634	-1024.340454101563	-180.9635925292969	57.9927215576172	-1066.730346679688	-312.2373046875001	125.4741516113282	-1008.279174804688	-361.2750854492188	770.9617309570315	-688.8093261718751	-336.8173522949219	710.8959350585939	-690.6292114257814	-303.1901245117188	706.4360961914064	-693.1148681640626	-376.8168334960938	641.7308959960939	-708.7060546875001	-387.0316467285157	570.2930908203126	-714.8919677734376	-350.6220703125001	557.7744140625001	-842.3836059570315	-336.3168640136719	434.4751281738282	-734.2655029296876	-398.432830810547	351.6722106933594	-707.7822265625001	-353.7561645507813	349.6277160644532	-724.9697265625001	-344.6725769042969	306.3817443847657	-765.4896240234376	-411.1736755371095	125.6665420532227	-737.6400756835939	-373.2163391113282	135.5384979248047	-822.9893798828127	-463.8322753906251	102.9427185058594	-800.374938964844	-243.9239349365235	63.35065078735353	-768.7014160156252	-253.6736907958985	62.17930984497072	-732.3017578125001	-277.4768371582032	45.82649230957032	-686.0900268554689	nan	nan	nan	
